<mxfile host="app.diagrams.net" agent="Mozilla/5.0 (Windows NT 10.0; Win64; x64) AppleWebKit/537.36 (KHTML, like Gecko) Chrome/133.0.0.0 Safari/537.36" version="26.0.14">
  <diagram id="C5RBs43oDa-KdzZeNtuy" name="Page-1">
    <mxGraphModel dx="1076" dy="580" grid="1" gridSize="13" guides="1" tooltips="1" connect="1" arrows="1" fold="1" page="1" pageScale="1" pageWidth="827" pageHeight="1169" background="#FFFFFF" math="0" shadow="1">
      <root>
        <mxCell id="WIyWlLk6GJQsqaUBKTNV-0" />
        <mxCell id="WIyWlLk6GJQsqaUBKTNV-1" parent="WIyWlLk6GJQsqaUBKTNV-0" />
        <mxCell id="1k444tVhW9YQ2niE3XHU-0" value="Register" style="ellipse;whiteSpace=wrap;html=1;labelBackgroundColor=none;fillColor=#FAE5C7;strokeColor=#0F8B8D;fontColor=#143642;" vertex="1" parent="WIyWlLk6GJQsqaUBKTNV-1">
          <mxGeometry x="290" y="70" width="120" height="70" as="geometry" />
        </mxCell>
        <mxCell id="1k444tVhW9YQ2niE3XHU-1" value="LogIn" style="ellipse;whiteSpace=wrap;html=1;labelBackgroundColor=none;fillColor=#FAE5C7;strokeColor=#0F8B8D;fontColor=#143642;" vertex="1" parent="WIyWlLk6GJQsqaUBKTNV-1">
          <mxGeometry x="290" y="180" width="120" height="70" as="geometry" />
        </mxCell>
        <mxCell id="1k444tVhW9YQ2niE3XHU-2" value="Browse Products" style="ellipse;whiteSpace=wrap;html=1;labelBackgroundColor=none;fillColor=#FAE5C7;strokeColor=#0F8B8D;fontColor=#143642;" vertex="1" parent="WIyWlLk6GJQsqaUBKTNV-1">
          <mxGeometry x="290" y="280" width="120" height="70" as="geometry" />
        </mxCell>
        <mxCell id="1k444tVhW9YQ2niE3XHU-3" value="Provide Products" style="ellipse;whiteSpace=wrap;html=1;labelBackgroundColor=none;fillColor=#FAE5C7;strokeColor=#0F8B8D;fontColor=#143642;" vertex="1" parent="WIyWlLk6GJQsqaUBKTNV-1">
          <mxGeometry x="290" y="390" width="120" height="70" as="geometry" />
        </mxCell>
        <mxCell id="1k444tVhW9YQ2niE3XHU-4" value="View Product details" style="ellipse;whiteSpace=wrap;html=1;labelBackgroundColor=none;fillColor=#FAE5C7;strokeColor=#0F8B8D;fontColor=#143642;" vertex="1" parent="WIyWlLk6GJQsqaUBKTNV-1">
          <mxGeometry x="290" y="510" width="120" height="70" as="geometry" />
        </mxCell>
        <mxCell id="1k444tVhW9YQ2niE3XHU-5" value="Add to cart" style="ellipse;whiteSpace=wrap;html=1;labelBackgroundColor=none;fillColor=#FAE5C7;strokeColor=#0F8B8D;fontColor=#143642;" vertex="1" parent="WIyWlLk6GJQsqaUBKTNV-1">
          <mxGeometry x="290" y="640" width="120" height="70" as="geometry" />
        </mxCell>
        <mxCell id="1k444tVhW9YQ2niE3XHU-6" value="Place Order" style="ellipse;whiteSpace=wrap;html=1;labelBackgroundColor=none;fillColor=#FAE5C7;strokeColor=#0F8B8D;fontColor=#143642;" vertex="1" parent="WIyWlLk6GJQsqaUBKTNV-1">
          <mxGeometry x="290" y="770" width="120" height="70" as="geometry" />
        </mxCell>
        <mxCell id="1k444tVhW9YQ2niE3XHU-7" value="Make Payment" style="ellipse;whiteSpace=wrap;html=1;labelBackgroundColor=none;fillColor=#FAE5C7;strokeColor=#0F8B8D;fontColor=#143642;" vertex="1" parent="WIyWlLk6GJQsqaUBKTNV-1">
          <mxGeometry x="290" y="900" width="120" height="70" as="geometry" />
        </mxCell>
        <mxCell id="1k444tVhW9YQ2niE3XHU-8" value="Ship Order" style="ellipse;whiteSpace=wrap;html=1;labelBackgroundColor=none;fillColor=#FAE5C7;strokeColor=#0F8B8D;fontColor=#143642;" vertex="1" parent="WIyWlLk6GJQsqaUBKTNV-1">
          <mxGeometry x="290" y="1030" width="120" height="70" as="geometry" />
        </mxCell>
        <mxCell id="1k444tVhW9YQ2niE3XHU-9" value="Report Fake Product" style="ellipse;whiteSpace=wrap;html=1;labelBackgroundColor=none;fillColor=#FAE5C7;strokeColor=#0F8B8D;fontColor=#143642;" vertex="1" parent="WIyWlLk6GJQsqaUBKTNV-1">
          <mxGeometry x="290" y="1160" width="120" height="70" as="geometry" />
        </mxCell>
        <mxCell id="1k444tVhW9YQ2niE3XHU-10" value="Verify Product authenticity" style="ellipse;whiteSpace=wrap;html=1;labelBackgroundColor=none;fillColor=#FAE5C7;strokeColor=#0F8B8D;fontColor=#143642;" vertex="1" parent="WIyWlLk6GJQsqaUBKTNV-1">
          <mxGeometry x="290" y="1290" width="120" height="70" as="geometry" />
        </mxCell>
        <mxCell id="1k444tVhW9YQ2niE3XHU-11" value="Detect Fake reviews" style="ellipse;whiteSpace=wrap;html=1;labelBackgroundColor=none;fillColor=#FAE5C7;strokeColor=#0F8B8D;fontColor=#143642;" vertex="1" parent="WIyWlLk6GJQsqaUBKTNV-1">
          <mxGeometry x="290" y="1420" width="120" height="70" as="geometry" />
        </mxCell>
        <mxCell id="1k444tVhW9YQ2niE3XHU-12" value="Refund Customer" style="ellipse;whiteSpace=wrap;html=1;labelBackgroundColor=none;fillColor=#FAE5C7;strokeColor=#0F8B8D;fontColor=#143642;" vertex="1" parent="WIyWlLk6GJQsqaUBKTNV-1">
          <mxGeometry x="294" y="1550" width="120" height="70" as="geometry" />
        </mxCell>
        <mxCell id="1k444tVhW9YQ2niE3XHU-13" value="Seller" style="shape=umlActor;verticalLabelPosition=bottom;verticalAlign=top;html=1;outlineConnect=0;labelBackgroundColor=none;fillColor=#FAE5C7;strokeColor=#0F8B8D;fontColor=#143642;" vertex="1" parent="WIyWlLk6GJQsqaUBKTNV-1">
          <mxGeometry x="80" y="210" width="30" height="60" as="geometry" />
        </mxCell>
        <mxCell id="1k444tVhW9YQ2niE3XHU-14" value="Customer" style="shape=umlActor;verticalLabelPosition=bottom;verticalAlign=top;html=1;outlineConnect=0;labelBackgroundColor=none;fillColor=#FAE5C7;strokeColor=#0F8B8D;fontColor=#143642;" vertex="1" parent="WIyWlLk6GJQsqaUBKTNV-1">
          <mxGeometry x="70" y="770" width="30" height="60" as="geometry" />
        </mxCell>
        <mxCell id="1k444tVhW9YQ2niE3XHU-15" value="Admin" style="shape=umlActor;verticalLabelPosition=bottom;verticalAlign=top;html=1;outlineConnect=0;labelBackgroundColor=none;fillColor=#FAE5C7;strokeColor=#0F8B8D;fontColor=#143642;" vertex="1" parent="WIyWlLk6GJQsqaUBKTNV-1">
          <mxGeometry x="650" y="525" width="30" height="65" as="geometry" />
        </mxCell>
        <mxCell id="1k444tVhW9YQ2niE3XHU-16" value="" style="endArrow=classic;html=1;rounded=0;entryX=0;entryY=0.5;entryDx=0;entryDy=0;labelBackgroundColor=none;strokeColor=#A8201A;fontColor=default;" edge="1" parent="WIyWlLk6GJQsqaUBKTNV-1" target="1k444tVhW9YQ2niE3XHU-0">
          <mxGeometry width="50" height="50" relative="1" as="geometry">
            <mxPoint x="120" y="240" as="sourcePoint" />
            <mxPoint x="520" y="280" as="targetPoint" />
          </mxGeometry>
        </mxCell>
        <mxCell id="1k444tVhW9YQ2niE3XHU-17" value="" style="endArrow=classic;html=1;rounded=0;entryX=0;entryY=0.5;entryDx=0;entryDy=0;labelBackgroundColor=none;strokeColor=#A8201A;fontColor=default;" edge="1" parent="WIyWlLk6GJQsqaUBKTNV-1" target="1k444tVhW9YQ2niE3XHU-1">
          <mxGeometry width="50" height="50" relative="1" as="geometry">
            <mxPoint x="120" y="240" as="sourcePoint" />
            <mxPoint x="520" y="280" as="targetPoint" />
          </mxGeometry>
        </mxCell>
        <mxCell id="1k444tVhW9YQ2niE3XHU-18" value="" style="endArrow=classic;html=1;rounded=0;entryX=0;entryY=0.5;entryDx=0;entryDy=0;labelBackgroundColor=none;strokeColor=#A8201A;fontColor=default;" edge="1" parent="WIyWlLk6GJQsqaUBKTNV-1" target="1k444tVhW9YQ2niE3XHU-3">
          <mxGeometry width="50" height="50" relative="1" as="geometry">
            <mxPoint x="120" y="240" as="sourcePoint" />
            <mxPoint x="520" y="280" as="targetPoint" />
          </mxGeometry>
        </mxCell>
        <mxCell id="1k444tVhW9YQ2niE3XHU-19" value="" style="endArrow=classic;html=1;rounded=0;exitX=1;exitY=0.3333333333333333;exitDx=0;exitDy=0;exitPerimeter=0;entryX=0;entryY=1;entryDx=0;entryDy=0;labelBackgroundColor=none;strokeColor=#A8201A;fontColor=default;" edge="1" parent="WIyWlLk6GJQsqaUBKTNV-1" source="1k444tVhW9YQ2niE3XHU-14" target="1k444tVhW9YQ2niE3XHU-0">
          <mxGeometry width="50" height="50" relative="1" as="geometry">
            <mxPoint x="440" y="540" as="sourcePoint" />
            <mxPoint x="490" y="490" as="targetPoint" />
          </mxGeometry>
        </mxCell>
        <mxCell id="1k444tVhW9YQ2niE3XHU-22" value="" style="endArrow=classic;html=1;rounded=0;labelBackgroundColor=none;strokeColor=#A8201A;fontColor=default;" edge="1" parent="WIyWlLk6GJQsqaUBKTNV-1" target="1k444tVhW9YQ2niE3XHU-1">
          <mxGeometry width="50" height="50" relative="1" as="geometry">
            <mxPoint x="100" y="790" as="sourcePoint" />
            <mxPoint x="480" y="490" as="targetPoint" />
            <Array as="points">
              <mxPoint x="220" y="400" />
            </Array>
          </mxGeometry>
        </mxCell>
        <mxCell id="1k444tVhW9YQ2niE3XHU-23" value="" style="endArrow=classic;html=1;rounded=0;exitX=1;exitY=0.3333333333333333;exitDx=0;exitDy=0;exitPerimeter=0;entryX=0;entryY=1;entryDx=0;entryDy=0;labelBackgroundColor=none;strokeColor=#A8201A;fontColor=default;" edge="1" parent="WIyWlLk6GJQsqaUBKTNV-1" source="1k444tVhW9YQ2niE3XHU-14" target="1k444tVhW9YQ2niE3XHU-2">
          <mxGeometry width="50" height="50" relative="1" as="geometry">
            <mxPoint x="430" y="540" as="sourcePoint" />
            <mxPoint x="480" y="490" as="targetPoint" />
          </mxGeometry>
        </mxCell>
        <mxCell id="1k444tVhW9YQ2niE3XHU-24" value="" style="endArrow=classic;html=1;rounded=0;entryX=0.016;entryY=0.718;entryDx=0;entryDy=0;entryPerimeter=0;exitX=0.5;exitY=0.5;exitDx=0;exitDy=0;exitPerimeter=0;labelBackgroundColor=none;strokeColor=#A8201A;fontColor=default;" edge="1" parent="WIyWlLk6GJQsqaUBKTNV-1" source="1k444tVhW9YQ2niE3XHU-14" target="1k444tVhW9YQ2niE3XHU-4">
          <mxGeometry width="50" height="50" relative="1" as="geometry">
            <mxPoint x="110" y="790" as="sourcePoint" />
            <mxPoint x="480" y="490" as="targetPoint" />
          </mxGeometry>
        </mxCell>
        <mxCell id="1k444tVhW9YQ2niE3XHU-25" value="" style="endArrow=classic;html=1;rounded=0;exitX=1;exitY=0.3333333333333333;exitDx=0;exitDy=0;exitPerimeter=0;entryX=0;entryY=0.5;entryDx=0;entryDy=0;labelBackgroundColor=none;strokeColor=#A8201A;fontColor=default;" edge="1" parent="WIyWlLk6GJQsqaUBKTNV-1" source="1k444tVhW9YQ2niE3XHU-14" target="1k444tVhW9YQ2niE3XHU-5">
          <mxGeometry width="50" height="50" relative="1" as="geometry">
            <mxPoint x="430" y="540" as="sourcePoint" />
            <mxPoint x="480" y="490" as="targetPoint" />
          </mxGeometry>
        </mxCell>
        <mxCell id="1k444tVhW9YQ2niE3XHU-26" value="" style="endArrow=classic;html=1;rounded=0;exitX=0.5;exitY=0.5;exitDx=0;exitDy=0;exitPerimeter=0;entryX=0;entryY=0.5;entryDx=0;entryDy=0;labelBackgroundColor=none;strokeColor=#A8201A;fontColor=default;" edge="1" parent="WIyWlLk6GJQsqaUBKTNV-1" source="1k444tVhW9YQ2niE3XHU-14" target="1k444tVhW9YQ2niE3XHU-6">
          <mxGeometry width="50" height="50" relative="1" as="geometry">
            <mxPoint x="430" y="730" as="sourcePoint" />
            <mxPoint x="480" y="680" as="targetPoint" />
          </mxGeometry>
        </mxCell>
        <mxCell id="1k444tVhW9YQ2niE3XHU-28" value="" style="endArrow=classic;html=1;rounded=0;exitX=0.5;exitY=0.5;exitDx=0;exitDy=0;exitPerimeter=0;entryX=0;entryY=0.5;entryDx=0;entryDy=0;labelBackgroundColor=none;strokeColor=#A8201A;fontColor=default;" edge="1" parent="WIyWlLk6GJQsqaUBKTNV-1" source="1k444tVhW9YQ2niE3XHU-14" target="1k444tVhW9YQ2niE3XHU-7">
          <mxGeometry width="50" height="50" relative="1" as="geometry">
            <mxPoint x="480" y="780" as="sourcePoint" />
            <mxPoint x="530" y="730" as="targetPoint" />
          </mxGeometry>
        </mxCell>
        <mxCell id="1k444tVhW9YQ2niE3XHU-29" value="" style="endArrow=classic;html=1;rounded=0;exitX=0.5;exitY=0.5;exitDx=0;exitDy=0;exitPerimeter=0;entryX=0;entryY=0.5;entryDx=0;entryDy=0;labelBackgroundColor=none;strokeColor=#A8201A;fontColor=default;" edge="1" parent="WIyWlLk6GJQsqaUBKTNV-1" source="1k444tVhW9YQ2niE3XHU-14" target="1k444tVhW9YQ2niE3XHU-8">
          <mxGeometry width="50" height="50" relative="1" as="geometry">
            <mxPoint x="480" y="970" as="sourcePoint" />
            <mxPoint x="530" y="920" as="targetPoint" />
          </mxGeometry>
        </mxCell>
        <mxCell id="1k444tVhW9YQ2niE3XHU-30" value="" style="endArrow=classic;html=1;rounded=0;exitX=0.5;exitY=0.5;exitDx=0;exitDy=0;exitPerimeter=0;entryX=0;entryY=0.5;entryDx=0;entryDy=0;labelBackgroundColor=none;strokeColor=#A8201A;fontColor=default;" edge="1" parent="WIyWlLk6GJQsqaUBKTNV-1" source="1k444tVhW9YQ2niE3XHU-14" target="1k444tVhW9YQ2niE3XHU-9">
          <mxGeometry width="50" height="50" relative="1" as="geometry">
            <mxPoint x="480" y="1090" as="sourcePoint" />
            <mxPoint x="530" y="1040" as="targetPoint" />
          </mxGeometry>
        </mxCell>
        <mxCell id="1k444tVhW9YQ2niE3XHU-31" value="" style="endArrow=classic;html=1;rounded=0;exitX=0.5;exitY=0.5;exitDx=0;exitDy=0;exitPerimeter=0;entryX=0.984;entryY=0.718;entryDx=0;entryDy=0;entryPerimeter=0;labelBackgroundColor=none;strokeColor=#A8201A;fontColor=default;" edge="1" parent="WIyWlLk6GJQsqaUBKTNV-1" source="1k444tVhW9YQ2niE3XHU-15" target="1k444tVhW9YQ2niE3XHU-0">
          <mxGeometry width="50" height="50" relative="1" as="geometry">
            <mxPoint x="480" y="510" as="sourcePoint" />
            <mxPoint x="530" y="460" as="targetPoint" />
            <Array as="points">
              <mxPoint x="600" y="260" />
            </Array>
          </mxGeometry>
        </mxCell>
        <mxCell id="1k444tVhW9YQ2niE3XHU-32" value="" style="endArrow=classic;html=1;rounded=0;exitX=0.5;exitY=0.5;exitDx=0;exitDy=0;exitPerimeter=0;entryX=1;entryY=0.5;entryDx=0;entryDy=0;labelBackgroundColor=none;strokeColor=#A8201A;fontColor=default;" edge="1" parent="WIyWlLk6GJQsqaUBKTNV-1" source="1k444tVhW9YQ2niE3XHU-15" target="1k444tVhW9YQ2niE3XHU-1">
          <mxGeometry width="50" height="50" relative="1" as="geometry">
            <mxPoint x="480" y="430" as="sourcePoint" />
            <mxPoint x="530" y="380" as="targetPoint" />
            <Array as="points">
              <mxPoint x="560" y="300" />
            </Array>
          </mxGeometry>
        </mxCell>
        <mxCell id="1k444tVhW9YQ2niE3XHU-33" value="" style="endArrow=classic;html=1;rounded=0;exitX=0.5;exitY=0.5;exitDx=0;exitDy=0;exitPerimeter=0;entryX=1;entryY=0;entryDx=0;entryDy=0;labelBackgroundColor=none;strokeColor=#A8201A;fontColor=default;" edge="1" parent="WIyWlLk6GJQsqaUBKTNV-1" source="1k444tVhW9YQ2niE3XHU-15" target="1k444tVhW9YQ2niE3XHU-10">
          <mxGeometry width="50" height="50" relative="1" as="geometry">
            <mxPoint x="480" y="430" as="sourcePoint" />
            <mxPoint x="530" y="380" as="targetPoint" />
          </mxGeometry>
        </mxCell>
        <mxCell id="1k444tVhW9YQ2niE3XHU-34" value="" style="endArrow=classic;html=1;rounded=0;entryX=1;entryY=0.5;entryDx=0;entryDy=0;exitX=0.5;exitY=0.5;exitDx=0;exitDy=0;exitPerimeter=0;labelBackgroundColor=none;strokeColor=#A8201A;fontColor=default;" edge="1" parent="WIyWlLk6GJQsqaUBKTNV-1" source="1k444tVhW9YQ2niE3XHU-15" target="1k444tVhW9YQ2niE3XHU-11">
          <mxGeometry width="50" height="50" relative="1" as="geometry">
            <mxPoint x="620" y="580" as="sourcePoint" />
            <mxPoint x="550" y="1300" as="targetPoint" />
            <Array as="points" />
          </mxGeometry>
        </mxCell>
        <mxCell id="1k444tVhW9YQ2niE3XHU-35" value="" style="endArrow=classic;html=1;rounded=0;entryX=1;entryY=0;entryDx=0;entryDy=0;exitX=0.5;exitY=0.5;exitDx=0;exitDy=0;exitPerimeter=0;labelBackgroundColor=none;strokeColor=#A8201A;fontColor=default;" edge="1" parent="WIyWlLk6GJQsqaUBKTNV-1" source="1k444tVhW9YQ2niE3XHU-15" target="1k444tVhW9YQ2niE3XHU-12">
          <mxGeometry width="50" height="50" relative="1" as="geometry">
            <mxPoint x="620" y="590" as="sourcePoint" />
            <mxPoint x="550" y="920" as="targetPoint" />
            <Array as="points">
              <mxPoint x="560" y="1110" />
            </Array>
          </mxGeometry>
        </mxCell>
        <mxCell id="1k444tVhW9YQ2niE3XHU-41" value="Register" style="ellipse;whiteSpace=wrap;html=1;labelBackgroundColor=none;fillColor=#FAE5C7;strokeColor=#0F8B8D;fontColor=#143642;" vertex="1" parent="WIyWlLk6GJQsqaUBKTNV-1">
          <mxGeometry x="490" y="380" width="90" height="60" as="geometry" />
        </mxCell>
        <mxCell id="1k444tVhW9YQ2niE3XHU-42" value="Login" style="ellipse;whiteSpace=wrap;html=1;labelBackgroundColor=none;fillColor=#FAE5C7;strokeColor=#0F8B8D;fontColor=#143642;" vertex="1" parent="WIyWlLk6GJQsqaUBKTNV-1">
          <mxGeometry x="460" y="580" width="110" height="50" as="geometry" />
        </mxCell>
        <mxCell id="1k444tVhW9YQ2niE3XHU-46" value="" style="endArrow=none;dashed=1;html=1;rounded=0;entryX=0;entryY=0.714;entryDx=0;entryDy=0;entryPerimeter=0;labelBackgroundColor=none;strokeColor=#A8201A;fontColor=default;" edge="1" parent="WIyWlLk6GJQsqaUBKTNV-1" source="1k444tVhW9YQ2niE3XHU-4" target="1k444tVhW9YQ2niE3XHU-41">
          <mxGeometry width="50" height="50" relative="1" as="geometry">
            <mxPoint x="520" y="520" as="sourcePoint" />
            <mxPoint x="570" y="470" as="targetPoint" />
          </mxGeometry>
        </mxCell>
        <mxCell id="1k444tVhW9YQ2niE3XHU-47" value="&amp;lt;&amp;lt;Extend&amp;gt;&amp;gt;" style="text;html=1;align=center;verticalAlign=middle;whiteSpace=wrap;rounded=0;rotation=-45;labelBackgroundColor=none;fontColor=#143642;" vertex="1" parent="WIyWlLk6GJQsqaUBKTNV-1">
          <mxGeometry x="380" y="460" width="60" height="30" as="geometry" />
        </mxCell>
        <mxCell id="1k444tVhW9YQ2niE3XHU-48" value="" style="endArrow=none;dashed=1;html=1;rounded=0;entryX=0;entryY=0.5;entryDx=0;entryDy=0;labelBackgroundColor=none;strokeColor=#A8201A;fontColor=default;" edge="1" parent="WIyWlLk6GJQsqaUBKTNV-1" target="1k444tVhW9YQ2niE3XHU-42">
          <mxGeometry width="50" height="50" relative="1" as="geometry">
            <mxPoint x="406" y="533" as="sourcePoint" />
            <mxPoint x="660" y="410" as="targetPoint" />
          </mxGeometry>
        </mxCell>
        <mxCell id="1k444tVhW9YQ2niE3XHU-49" value="&lt;span style=&quot;color: rgb(0, 0, 0); font-family: Helvetica; font-size: 12px; font-style: normal; font-variant-ligatures: normal; font-variant-caps: normal; font-weight: 400; letter-spacing: normal; orphans: 2; text-align: center; text-indent: 0px; text-transform: none; widows: 2; word-spacing: 0px; -webkit-text-stroke-width: 0px; white-space: normal; background-color: rgb(251, 251, 251); text-decoration-thickness: initial; text-decoration-style: initial; text-decoration-color: initial; display: inline !important; float: none;&quot;&gt;&amp;lt;&amp;lt;Extend&amp;gt;&amp;gt;&lt;/span&gt;" style="text;whiteSpace=wrap;html=1;rotation=45;labelBackgroundColor=none;fontColor=#143642;" vertex="1" parent="WIyWlLk6GJQsqaUBKTNV-1">
          <mxGeometry x="400" y="565" width="100" height="40" as="geometry" />
        </mxCell>
        <mxCell id="1k444tVhW9YQ2niE3XHU-50" value="" style="endArrow=none;dashed=1;html=1;rounded=0;exitX=1;exitY=0.5;exitDx=0;exitDy=0;labelBackgroundColor=none;strokeColor=#A8201A;fontColor=default;" edge="1" parent="WIyWlLk6GJQsqaUBKTNV-1" source="1k444tVhW9YQ2niE3XHU-3" target="1k444tVhW9YQ2niE3XHU-1">
          <mxGeometry width="50" height="50" relative="1" as="geometry">
            <mxPoint x="520" y="420" as="sourcePoint" />
            <mxPoint x="570" y="370" as="targetPoint" />
            <Array as="points">
              <mxPoint x="490" y="320" />
            </Array>
          </mxGeometry>
        </mxCell>
        <mxCell id="1k444tVhW9YQ2niE3XHU-51" value="&lt;span style=&quot;color: rgb(0, 0, 0); font-family: Helvetica; font-size: 12px; font-style: normal; font-variant-ligatures: normal; font-variant-caps: normal; font-weight: 400; letter-spacing: normal; orphans: 2; text-align: center; text-indent: 0px; text-transform: none; widows: 2; word-spacing: 0px; -webkit-text-stroke-width: 0px; white-space: normal; background-color: rgb(251, 251, 251); text-decoration-thickness: initial; text-decoration-style: initial; text-decoration-color: initial; float: none; display: inline !important;&quot;&gt;&amp;lt;&amp;lt;include&amp;gt;&amp;gt;&lt;/span&gt;" style="text;whiteSpace=wrap;html=1;rotation=-60;labelBackgroundColor=none;fontColor=#143642;" vertex="1" parent="WIyWlLk6GJQsqaUBKTNV-1">
          <mxGeometry x="400" y="330" width="100" height="40" as="geometry" />
        </mxCell>
        <mxCell id="1k444tVhW9YQ2niE3XHU-52" value="" style="endArrow=none;dashed=1;html=1;rounded=0;exitX=1;exitY=0.5;exitDx=0;exitDy=0;entryX=1;entryY=1;entryDx=0;entryDy=0;labelBackgroundColor=none;strokeColor=#A8201A;fontColor=default;" edge="1" parent="WIyWlLk6GJQsqaUBKTNV-1" source="1k444tVhW9YQ2niE3XHU-6" target="1k444tVhW9YQ2niE3XHU-1">
          <mxGeometry width="50" height="50" relative="1" as="geometry">
            <mxPoint x="520" y="610" as="sourcePoint" />
            <mxPoint x="570" y="560" as="targetPoint" />
            <Array as="points">
              <mxPoint x="470" y="360" />
            </Array>
          </mxGeometry>
        </mxCell>
        <mxCell id="1k444tVhW9YQ2niE3XHU-54" value="&lt;span style=&quot;color: rgb(0, 0, 0); font-family: Helvetica; font-size: 12px; font-style: normal; font-variant-ligatures: normal; font-variant-caps: normal; font-weight: 400; letter-spacing: normal; orphans: 2; text-align: center; text-indent: 0px; text-transform: none; widows: 2; word-spacing: 0px; -webkit-text-stroke-width: 0px; white-space: normal; background-color: rgb(251, 251, 251); text-decoration-thickness: initial; text-decoration-style: initial; text-decoration-color: initial; float: none; display: inline !important;&quot;&gt;&amp;lt;&amp;lt;include&amp;gt;&amp;gt;&lt;/span&gt;" style="text;whiteSpace=wrap;html=1;rotation=-90;labelBackgroundColor=none;fontColor=#143642;" vertex="1" parent="WIyWlLk6GJQsqaUBKTNV-1">
          <mxGeometry x="400" y="420" width="100" height="40" as="geometry" />
        </mxCell>
        <mxCell id="1k444tVhW9YQ2niE3XHU-56" value="" style="endArrow=none;dashed=1;html=1;rounded=0;exitX=0.5;exitY=0;exitDx=0;exitDy=0;entryX=0.5;entryY=1;entryDx=0;entryDy=0;labelBackgroundColor=none;strokeColor=#A8201A;fontColor=default;" edge="1" parent="WIyWlLk6GJQsqaUBKTNV-1">
          <mxGeometry width="50" height="50" relative="1" as="geometry">
            <mxPoint x="200" y="1300" as="sourcePoint" />
            <mxPoint x="200" y="1240" as="targetPoint" />
          </mxGeometry>
        </mxCell>
        <mxCell id="1k444tVhW9YQ2niE3XHU-57" value="&lt;span style=&quot;color: rgb(0, 0, 0); font-family: Helvetica; font-size: 12px; font-style: normal; font-variant-ligatures: normal; font-variant-caps: normal; font-weight: 400; letter-spacing: normal; orphans: 2; text-align: center; text-indent: 0px; text-transform: none; widows: 2; word-spacing: 0px; -webkit-text-stroke-width: 0px; white-space: normal; background-color: rgb(251, 251, 251); text-decoration-thickness: initial; text-decoration-style: initial; text-decoration-color: initial; float: none; display: inline !important;&quot;&gt;&amp;lt;&amp;lt;include&amp;gt;&amp;gt;&lt;/span&gt;" style="text;whiteSpace=wrap;html=1;rotation=-90;labelBackgroundColor=none;fontColor=#143642;" vertex="1" parent="WIyWlLk6GJQsqaUBKTNV-1">
          <mxGeometry x="300" y="860" width="60" height="20" as="geometry" />
        </mxCell>
        <mxCell id="1k444tVhW9YQ2niE3XHU-59" value="" style="endArrow=none;dashed=1;html=1;rounded=0;exitX=0.5;exitY=0;exitDx=0;exitDy=0;entryX=0.5;entryY=1;entryDx=0;entryDy=0;labelBackgroundColor=none;strokeColor=#A8201A;fontColor=default;" edge="1" parent="WIyWlLk6GJQsqaUBKTNV-1" source="1k444tVhW9YQ2niE3XHU-7" target="1k444tVhW9YQ2niE3XHU-6">
          <mxGeometry width="50" height="50" relative="1" as="geometry">
            <mxPoint x="520" y="760" as="sourcePoint" />
            <mxPoint x="570" y="710" as="targetPoint" />
          </mxGeometry>
        </mxCell>
        <mxCell id="1k444tVhW9YQ2niE3XHU-61" value="" style="endArrow=none;dashed=1;html=1;rounded=0;exitX=0.5;exitY=0;exitDx=0;exitDy=0;entryX=0.5;entryY=1;entryDx=0;entryDy=0;labelBackgroundColor=none;strokeColor=#A8201A;fontColor=default;" edge="1" parent="WIyWlLk6GJQsqaUBKTNV-1" source="1k444tVhW9YQ2niE3XHU-8" target="1k444tVhW9YQ2niE3XHU-7">
          <mxGeometry width="50" height="50" relative="1" as="geometry">
            <mxPoint x="520" y="920" as="sourcePoint" />
            <mxPoint x="570" y="870" as="targetPoint" />
          </mxGeometry>
        </mxCell>
        <mxCell id="1k444tVhW9YQ2niE3XHU-62" value="" style="endArrow=none;dashed=1;html=1;rounded=0;exitX=0.5;exitY=0;exitDx=0;exitDy=0;entryX=0.5;entryY=1;entryDx=0;entryDy=0;labelBackgroundColor=none;strokeColor=#A8201A;fontColor=default;" edge="1" parent="WIyWlLk6GJQsqaUBKTNV-1" source="1k444tVhW9YQ2niE3XHU-9" target="1k444tVhW9YQ2niE3XHU-8">
          <mxGeometry width="50" height="50" relative="1" as="geometry">
            <mxPoint x="520" y="1040" as="sourcePoint" />
            <mxPoint x="570" y="990" as="targetPoint" />
          </mxGeometry>
        </mxCell>
        <mxCell id="1k444tVhW9YQ2niE3XHU-63" value="&lt;span style=&quot;color: rgb(0, 0, 0); font-family: Helvetica; font-size: 12px; font-style: normal; font-variant-ligatures: normal; font-variant-caps: normal; font-weight: 400; letter-spacing: normal; orphans: 2; text-align: center; text-indent: 0px; text-transform: none; widows: 2; word-spacing: 0px; -webkit-text-stroke-width: 0px; white-space: normal; background-color: rgb(251, 251, 251); text-decoration-thickness: initial; text-decoration-style: initial; text-decoration-color: initial; float: none; display: inline !important;&quot;&gt;&amp;lt;&amp;lt;include&amp;gt;&amp;gt;&lt;/span&gt;" style="text;whiteSpace=wrap;html=1;rotation=-90;labelBackgroundColor=none;fontColor=#143642;" vertex="1" parent="WIyWlLk6GJQsqaUBKTNV-1">
          <mxGeometry x="300" y="990" width="60" height="20" as="geometry" />
        </mxCell>
        <mxCell id="1k444tVhW9YQ2niE3XHU-65" value="&lt;span style=&quot;color: rgb(0, 0, 0); font-family: Helvetica; font-size: 12px; font-style: normal; font-variant-ligatures: normal; font-variant-caps: normal; font-weight: 400; letter-spacing: normal; orphans: 2; text-align: center; text-indent: 0px; text-transform: none; widows: 2; word-spacing: 0px; -webkit-text-stroke-width: 0px; white-space: normal; background-color: rgb(251, 251, 251); text-decoration-thickness: initial; text-decoration-style: initial; text-decoration-color: initial; float: none; display: inline !important;&quot;&gt;&amp;lt;&amp;lt;include&amp;gt;&amp;gt;&lt;/span&gt;" style="text;whiteSpace=wrap;html=1;rotation=-90;labelBackgroundColor=none;fontColor=#143642;" vertex="1" parent="WIyWlLk6GJQsqaUBKTNV-1">
          <mxGeometry x="300" y="1120" width="60" height="20" as="geometry" />
        </mxCell>
        <mxCell id="1k444tVhW9YQ2niE3XHU-72" value="" style="swimlane;startSize=0;labelBackgroundColor=none;fillColor=#FAE5C7;strokeColor=#0F8B8D;fontColor=#143642;swimlaneLine=1;glass=1;" vertex="1" parent="WIyWlLk6GJQsqaUBKTNV-1">
          <mxGeometry x="150" y="20" width="470" height="1670" as="geometry" />
        </mxCell>
      </root>
    </mxGraphModel>
  </diagram>
</mxfile>
